<?xml version="1.0" encoding="utf-8"?>
<svg viewBox="0 0 700 700" width="700" height="700" xmlns="http://www.w3.org/2000/svg">
  <path d="M 442.66 431.93 C 438.738 426.328 430.34 425.211 425.301 430.25 L 411.86 443.129 C 406.821 448.168 398.981 447.051 394.501 442.008 L 351.942 384.328 C 346.903 377.609 337.383 378.168 332.903 384.887 L 259.54 501.927 C 254.501 509.767 260.099 519.849 269.06 519.849 L 482.98 519.849 C 492.499 519.849 498.101 509.208 492.499 501.369 L 442.66 431.93 Z" style="fill: rgb(112, 107, 107);"/>
  <path d="M 483.54 365.29 C 483.54 381.681 470.255 394.97 453.86 394.97 C 437.469 394.97 424.18 381.681 424.18 365.29 C 424.18 348.899 437.469 335.61 453.86 335.61 C 470.255 335.61 483.54 348.899 483.54 365.29" style="fill: rgb(122, 119, 119);"/>
  <path d="M 571.46 262.81 L 458.9 149.69 C 455.541 146.331 451.06 144.651 446.58 144.651 L 342.42 144.092 C 324.498 95.373 277.459 60.092 222.02 60.092 C 151.458 60.651 93.78 118.33 93.78 188.892 C 93.78 243.771 128.499 290.812 177.221 308.732 L 177.221 551.772 C 177.221 574.17 195.143 592.092 217.541 592.092 L 536.181 592.092 C 558.579 592.092 576.501 574.17 576.501 551.772 L 576.497 274.572 C 576.497 270.092 574.817 265.611 571.458 262.81 L 571.46 262.81 Z M 463.94 204.009 L 517.702 257.771 L 463.94 257.771 L 463.94 204.009 Z M 128.5 188.888 C 128.5 137.368 170.5 94.81 222.578 94.81 C 274.656 94.81 316.656 136.81 316.656 188.888 C 316.656 240.966 274.656 282.966 222.578 282.966 C 170.5 282.97 128.5 240.97 128.5 188.888 Z M 536.18 557.928 L 217.54 557.928 C 214.181 557.928 211.938 555.127 211.938 552.326 L 211.938 317.126 C 215.298 317.685 218.657 317.685 222.579 317.685 C 293.138 317.685 350.819 260.005 350.819 189.445 C 350.819 186.086 350.819 182.726 350.261 179.367 L 429.222 179.367 L 429.222 274.566 C 429.222 284.085 437.062 291.925 446.581 291.925 L 541.78 291.925 L 541.78 551.765 C 541.784 555.124 538.983 557.925 536.182 557.925 L 536.18 557.928 Z" style="fill: rgb(110, 106, 106);"/>
  <path d="M 239.38 235.37 L 239.38 184.409 L 243.302 187.768 C 246.661 191.128 251.142 192.249 255.064 192.249 C 259.544 192.249 264.583 190.569 267.943 186.647 C 274.662 179.929 274.103 168.725 266.822 162.006 L 233.783 131.205 C 227.064 125.045 216.982 125.045 210.263 131.205 L 177.783 162.006 C 171.064 168.725 170.502 179.365 177.224 186.647 C 183.943 193.366 194.583 193.929 201.865 187.206 L 205.787 183.846 L 205.787 234.807 C 205.787 244.327 213.627 252.166 223.146 252.166 C 232.662 252.17 239.38 244.889 239.38 235.369 L 239.38 235.37 Z" style="fill: rgb(120, 117, 117);"/>
</svg>